<svg xmlns="http://www.w3.org/2000/svg" xml:space="preserve" viewBox="0 0 256 256" role="image" aria-label="Play sound"><path fill="currentColor" d="M176.3 89.4v-.1c-4.3-1.4-6.6-6-5.2-10.2 1.4-4.3 6-6.6 10.2-5.2 1 .3 1.8.8 2.6 1.4 29.1 17.2 38.8 54.7 21.6 83.8-5.2 8.8-12.5 16.2-21.3 21.4-3.4 2.7-8.3 2.3-11-1.1-2.7-3.4-2.3-8.3 1.1-11 .6-.5 1.2-.9 1.9-1.2v-.1c21.5-12.8 28.5-40.6 15.7-62-3.8-6.4-9.1-11.8-15.6-15.7zm4.5 127.5c-4.1 1.6-8.7-.4-10.3-4.5-1.6-4.1.4-8.7 4.5-10.3.4-.2.9-.3 1.3-.4v-.1c31.2-9.9 53.7-39.1 53.7-73.5s-22.6-63.6-53.7-73.5c-4.3-.7-7.3-4.9-6.5-9.2.7-3.8 4-6.6 7.9-6.6 2.1 0 2.6.3 2.8.5-.1.3.1.2 0 0v-.1c38 11.8 65.6 47.1 65.6 89-.1 41.5-27.5 76.8-65.3 88.7zm-38.3 28.4h-.5c-2.5 0-4.9-.8-6.9-2.4v.1L62 189.5H23.3c-7.3 0-13.3-6-13.3-13.3V80.4c0-7.3 6-13.3 13.3-13.3h38L135.1 13v.1c2-1.5 4.4-2.4 6.9-2.4h.5c6.2 0 11.2 5 11.2 11.2V234.2c0 6.1-5 11.1-11.2 11.1zM47.2 87c0-2.2-1.8-4-4-4H30c-2.2 0-4 1.8-4 4v82.5c0 2.2 1.8 4 4 4h13.3c2.2 0 4-1.8 4-4V87zm90.5-44.6c-.4-2.9-3.1-4.9-6-4.6-1.1.1-2.2.6-3 1.4L67.2 80.9h-.1v.1c-2.1 1.4-3.6 3.7-3.9 6.2h-.1v81.5h.1c.3 2.5 1.7 4.8 3.9 6.2v.1h.1l61.5 41.6c2.1 2 5.5 2 7.5-.2.8-.8 1.3-1.9 1.4-3v-171h.1z"/></svg>